<svg xmlns="http://www.w3.org/2000/svg" viewBox="0 0 32 32">
  <rect width="32" height="32" rx="7" fill="#10b981"/>
  <path transform="translate(4, 4)" fill="#ffffff" d="M11.645 20.91l-.007-.003-.003-.001a11.4 11.4 0 01-1.107-.638A23.778 23.778 0 017.38 17.618C5.23 15.347 3 12.016 3 8.35C3 5.405 5.405 3 8.35 3c1.69 0 3.236.787 4.25 2.015C13.62 3.787 15.165 3 16.85 3c2.945 0 5.35 2.405 5.35 5.35 0 3.665-2.23 6.997-4.38 9.268a23.778 23.778 0 01-3.153 2.652c-.394.274-.753.486-1.107.637l-.003.001-.007.003-.003.001-.005.002a.75.75 0 01-.692 0l-.005-.002z"/>
</svg>
